<svg width="240" height="240" viewBox="0 0 240 240" fill="none" xmlns="http://www.w3.org/2000/svg">
  <rect width="240" height="240" rx="32" fill="#0c1b2c"/>
  <!-- Neon memory chips -->
  <rect x="60" y="60" width="36" height="16" rx="4" fill="url(#chip1)"/>
  <rect x="144" y="60" width="36" height="16" rx="4" fill="url(#chip2)"/>
  <rect x="60" y="164" width="36" height="16" rx="4" fill="url(#chip2)"/>
  <rect x="144" y="164" width="36" height="16" rx="4" fill="url(#chip1)"/>
  <!-- Central neon data stream -->
  <rect x="110" y="70" width="20" height="100" rx="8" fill="url(#datastream)"/>
  <!-- Circuit traces -->
  <path d="M120 70 Q120 40 80 40" stroke="#00fff7" stroke-width="2.5" fill="none"/>
  <circle cx="80" cy="40" r="3" fill="#00fff7"/>
  <path d="M130 170 Q160 200 200 200" stroke="#ff5edc" stroke-width="2.5" fill="none"/>
  <circle cx="200" cy="200" r="3" fill="#ff5edc"/>
  <!-- Neon base -->
  <rect x="60" y="210" width="120" height="8" rx="4" fill="#00fff7" opacity="0.23"/>
  <!-- Outer glow -->
  <g filter="url(#glow)">
    <ellipse cx="120" cy="120" rx="88" ry="88" fill="#00fff7" opacity="0.13"/>
  </g>
  <defs>
    <linearGradient id="chip1" x1="60" y1="60" x2="96" y2="76" gradientUnits="userSpaceOnUse">
      <stop stop-color="#ff5edc"/>
      <stop offset="1" stop-color="#00fff7"/>
    </linearGradient>
    <linearGradient id="chip2" x1="60" y1="164" x2="96" y2="180" gradientUnits="userSpaceOnUse">
      <stop stop-color="#39ff14"/>
      <stop offset="1" stop-color="#b983ff"/>
    </linearGradient>
    <linearGradient id="datastream" x1="110" y1="70" x2="130" y2="170" gradientUnits="userSpaceOnUse">
      <stop stop-color="#00fff7"/>
      <stop offset="1" stop-color="#ff5edc"/>
    </linearGradient>
    <filter id="glow" x="0" y="0" width="240" height="240" filterUnits="userSpaceOnUse" color-interpolation-filters="sRGB">
      <feGaussianBlur stdDeviation="18" result="blur"/>
      <feMerge>
        <feMergeNode in="blur"/>
        <feMergeNode in="SourceGraphic"/>
      </feMerge>
    </filter>
  </defs>
</svg>
